<svg xmlns="http://www.w3.org/2000/svg" width="800" height="800" viewBox="0 0 800 800"><rect width="100%" height="100%" fill="#DDDDDD"/><path fill="#999999" d="M217.34 368.825v66.12h-13.22v-27.47h-26.97v27.47h-13.26v-66.12h13.26v28.43h26.97v-28.43zm33.06 67.07q-10.63 0-16.99-6.81t-6.36-17.3v-1.82q0-10.94 6.02-18.02 6.02-7.09 16.15-7.04 9.94 0 15.43 5.99 5.5 6 5.5 16.21v7.22h-29.34l-.09.28q.37 4.86 3.25 7.99t7.83 3.13q4.41 0 7.31-.88 2.91-.89 6.36-2.8l3.59 8.18q-3 2.45-7.86 4.06t-10.8 1.61m-1.18-40.77q-3.68 0-5.82 2.81-2.13 2.82-2.63 7.4l.14.23h16.25v-1.18q0-4.22-1.97-6.74-1.98-2.52-5.97-2.52m42.59-31.02v70.84h-13.26v-70.84zm24.84 0v70.84h-13.26v-70.84zm8.85 46.77v-.95q0-10.99 6.13-18.01 6.13-7.01 16.99-7.01 10.9 0 17.07 6.99 6.18 6.99 6.18 18.03v.95q0 11.08-6.16 18.05-6.15 6.97-17 6.97-10.9 0-17.05-6.97-6.16-6.97-6.16-18.05m13.22-.95v.95q0 6.72 2.36 10.79 2.36 4.06 7.63 4.06 5.13 0 7.51-4.09 2.39-4.08 2.39-10.76v-.95q0-6.54-2.41-10.67t-7.58-4.13q-5.13 0-7.52 4.15-2.38 4.16-2.38 10.65m105.4-41.1 12.48 45.32h.28l9.44-45.32h12.94l-15.44 66.12h-12.3l-12.13-43.64h-.27L427 434.945h-12.31l-15.49-66.12h12.99l9.49 45.28.28.04 12.39-45.32zm37.82 42.05v-.95q0-10.99 6.13-18.01 6.13-7.01 16.99-7.01 10.89 0 17.07 6.99t6.18 18.03v.95q0 11.08-6.16 18.05-6.15 6.97-17 6.97-10.9 0-17.05-6.97-6.16-6.97-6.16-18.05m13.22-.95v.95q0 6.72 2.36 10.79 2.36 4.06 7.63 4.06 5.13 0 7.51-4.09 2.39-4.08 2.39-10.76v-.95q0-6.54-2.41-10.67t-7.58-4.13q-5.14 0-7.52 4.15-2.38 4.16-2.38 10.65m68.57-24.48-1.41 11.76-4.86-.13q-2.95 0-4.86 1.22-1.91 1.23-2.91 3.46v33.19h-13.21v-49.13h12.31l.59 7.26q1.72-3.86 4.47-6.02 2.75-2.15 6.33-2.15 1 0 1.84.16t1.71.38m19.25-21.34v70.84h-13.26v-70.84zm8.85 47.64v-.96q0-11.62 5.02-18.75t14.15-7.13q3.68 0 6.63 1.59t5.17 4.54v-26.93h13.31v70.84h-11.4l-1.09-5.99q-2.31 3.4-5.47 5.17t-7.24 1.77q-9.04 0-14.06-6.63t-5.02-17.52m13.22-.96v.96q0 6.44 2.18 10.14 2.18 3.71 7.08 3.71 2.86 0 5-1.16 2.13-1.16 3.49-3.39v-20.93q-1.36-2.32-3.47-3.61t-4.93-1.29q-4.86 0-7.1 4.31-2.25 4.31-2.25 11.26"/></svg>